<?xml version="1.0" encoding="utf-8"?>
<!-- Generator: Adobe Illustrator 15.0.0, SVG Export Plug-In . SVG Version: 6.00 Build 0)  -->
<!DOCTYPE svg PUBLIC "-//W3C//DTD SVG 1.1//EN" "http://www.w3.org/Graphics/SVG/1.1/DTD/svg11.dtd">
<svg version="1.1" id="图层_1" xmlns="http://www.w3.org/2000/svg" xmlns:xlink="http://www.w3.org/1999/xlink" x="0px" y="0px"
	 width="200px" height="200px" viewBox="0 0 200 200" enable-background="new 0 0 200 200" xml:space="preserve">
<g>
	<g>
		<defs>
			<rect id="SVGID_1_" x="7.5" width="184.222" height="199.999"/>
		</defs>
		<clipPath id="SVGID_2_">
			<use xlink:href="#SVGID_1_"  overflow="visible"/>
		</clipPath>
		<path clip-path="url(#SVGID_2_)" fill="#3FD9FF" d="M107.717,2.249l75.318,41.829c5.263,2.914,8.543,8.462,8.556,14.482v82.781
			c-0.013,6.008-3.293,11.553-8.556,14.47l-75.318,41.828c-5.078,2.813-11.264,2.813-16.348,0l-75.315-41.828
			c-5.274-2.917-8.541-8.462-8.554-14.47V58.56c0.014-6.02,3.28-11.568,8.554-14.482L91.369,2.249
			C96.453-0.573,102.639-0.573,107.717,2.249L107.717,2.249z M107.717,2.249"/>
		<path clip-path="url(#SVGID_2_)" fill="#5296DE" d="M100.378,15.318c-0.523-0.282-1.148-0.282-1.669,0L23.402,57.145
			c-0.522,0.278-0.84,0.818-0.843,1.415v82.781c0,0.567,0.321,1.118,0.843,1.41l75.307,41.819c0.521,0.291,1.146,0.291,1.669,0
			l75.308-41.819c0.516-0.285,0.845-0.825,0.845-1.41V58.56c0-0.597-0.329-1.137-0.845-1.415L100.378,15.318z M107.717,2.249
			l75.318,41.829c5.263,2.914,8.543,8.462,8.556,14.482v82.781c-0.013,6.008-3.293,11.553-8.556,14.47l-75.318,41.828
			c-5.078,2.813-11.264,2.813-16.348,0l-75.315-41.828c-5.274-2.917-8.541-8.462-8.554-14.47V58.56
			c0.014-6.02,3.28-11.568,8.554-14.482L91.369,2.249C96.453-0.573,102.639-0.573,107.717,2.249L107.717,2.249z M107.717,2.249"/>
	</g>
	<path fill="#3D5AB7" d="M100.378,15.318c-0.523-0.282-1.148-0.282-1.669,0L23.402,57.145c-0.522,0.278-0.84,0.818-0.843,1.415
		v82.781c0,0.567,0.321,1.118,0.843,1.41l75.307,41.819c0.521,0.291,1.146,0.291,1.669,0l75.308-41.819
		c0.516-0.285,0.845-0.825,0.845-1.41V58.56c0-0.597-0.329-1.137-0.845-1.415L100.378,15.318z"/>
	<g>
		<rect x="102.382" y="53.388" fill="#F8A115" width="32.507" height="8.876"/>
		<g>
			<path fill="#FFFFFF" d="M73.79,53.388H61.516h-6.659h-2.22v96.611h8.878v-29.507H73.79v29.507h8.875V53.388h-3.002H73.79z
				 M73.79,111.616H61.516V90.987H73.79V111.616z M61.516,82.11V62.264H73.79V82.11H61.516z"/>
			<polygon fill="#FFFFFF" points="88.865,95.427 99.337,95.427 87.539,145.049 96.115,147.352 110.059,90.987 110.083,86.549 
				88.865,86.549 			"/>
			<path fill="#FFFFFF" d="M127.351,98.379l18.106-15.25l-5.719-6.79l-17.384,14.639V78.714v-4.633v-4.243H95.331v8.876h18.147
				v71.285h8.876v-42l19.873,38.125l7.871-4.104L127.351,98.379z M122.354,95.742v-0.236l0.138,0.165L122.354,95.742z"/>
		</g>
	</g>
</g>
</svg>
