<?xml version="1.0" encoding="utf-8"?>
<!-- Generator: Adobe Illustrator 15.0.0, SVG Export Plug-In . SVG Version: 6.00 Build 0)  -->
<!DOCTYPE svg PUBLIC "-//W3C//DTD SVG 1.1//EN" "http://www.w3.org/Graphics/SVG/1.1/DTD/svg11.dtd">
<svg version="1.1" id="图层_1" xmlns="http://www.w3.org/2000/svg" xmlns:xlink="http://www.w3.org/1999/xlink" x="0px" y="0px"
	 width="200px" height="200px" viewBox="0 0 200 200" enable-background="new 0 0 200 200" xml:space="preserve">
<path fill="#5BC3E6" d="M107.557,6.973l71.685,39.81c5.016,2.778,8.135,8.053,8.151,13.786v78.785
	c-0.021,5.728-3.14,10.995-8.151,13.77l-71.685,39.817c-4.837,2.685-10.718,2.685-15.556,0l-71.692-39.817
	c-5.013-2.77-8.127-8.043-8.135-13.77V60.568c0.004-5.732,3.119-11.011,8.135-13.786L92,6.973
	C96.836,4.28,102.722,4.28,107.557,6.973L107.557,6.973z"/>
<path fill="#59C2E1" d="M100.577,19.396c-0.497-0.265-1.092-0.265-1.588,0L27.313,59.213c-0.5,0.263-0.812,0.781-0.81,1.346v78.784
	c0,0.537,0.305,1.066,0.81,1.339l71.668,39.811c0.492,0.28,1.095,0.28,1.587,0l71.668-39.811c0.497-0.261,0.809-0.776,0.81-1.339
	V60.56c0.006-0.566-0.307-1.086-0.81-1.346L100.577,19.396z M107.557,6.973l71.685,39.81c5.016,2.778,8.135,8.053,8.151,13.786
	v78.785c-0.021,5.728-3.14,10.995-8.151,13.77l-71.685,39.817c-4.837,2.685-10.718,2.685-15.556,0l-71.692-39.817
	c-5.013-2.77-8.127-8.043-8.135-13.77V60.568c0.004-5.732,3.119-11.011,8.135-13.786L92,6.973
	C96.836,4.28,102.722,4.28,107.557,6.973L107.557,6.973z"/>
<path fill="#1A6F9D" d="M100.577,19.396c-0.497-0.265-1.092-0.265-1.588,0L27.313,59.213c-0.5,0.263-0.812,0.781-0.81,1.346v78.784
	c0,0.537,0.305,1.066,0.81,1.339l71.668,39.811c0.492,0.28,1.095,0.28,1.587,0l71.668-39.811c0.497-0.261,0.809-0.776,0.81-1.339
	V60.56c0.006-0.566-0.307-1.086-0.81-1.346L100.577,19.396z"/>
<path fill="#FFFFFF" d="M59.333,84.66h17.665v59.092H59.333V84.66z"/>
<path fill="#FFFFFF" d="M55.91,65.568c0,6.675,5.411,12.087,12.086,12.087c6.675,0,12.087-5.412,12.087-12.087
	c0-6.675-5.412-12.086-12.087-12.086C61.321,53.482,55.91,58.894,55.91,65.568z"/>
<path fill="#FFFFFF" d="M87.336,84.66h18.146v6.884c0,0,8.544-6.884,19.372-6.884c10.827,0,18.803,9.521,18.803,17.488v41.604
	h-17.096v-34.767c0,0-0.481-10.829-11.061-10.829c-10.595,0-10.019,10.829-10.019,10.829v34.767H87.336V84.66z"/>
</svg>
